<?xml version="1.0" encoding="UTF-8"?>
<!DOCTYPE svg PUBLIC "-//W3C//DTD SVG 1.1//EN" "http://www.w3.org/Graphics/SVG/1.1/DTD/svg11.dtd">
<!-- Creator: CorelDRAW -->
<svg xmlns="http://www.w3.org/2000/svg" xml:space="preserve" width="241px" height="318px" version="1.1" style="shape-rendering:geometricPrecision; text-rendering:geometricPrecision; image-rendering:optimizeQuality; fill-rule:evenodd; clip-rule:evenodd"
viewBox="0 0 247.945 327.458"
 xmlns:xlink="http://www.w3.org/1999/xlink"
 xmlns:xodm="http://www.corel.com/coreldraw/odm/2003">
 <defs>
  <style type="text/css">
   <![CDATA[
    .fil0 {fill:#020202}
    .fil3 {fill:#FCFCFC}
    .fil2 {fill:#FDFDFD}
    .fil1 {fill:#FEFEFE}
   ]]>
  </style>
 </defs>
 <g id="Camada_x0020_1">
  <metadata id="CorelCorpID_0Corel-Layer"/>
  <g id="_1863746289792">
   <path class="fil0" d="M112.911 279.842c0.381,-1.032 7.729,-10.429 8.699,-11.823l8.961 -11.644 3.397 38.693c-1.283,-0.602 -3.857,-2.763 -5.174,-3.724 -1.824,-1.331 -3.611,-2.489 -5.362,-3.792l-10.521 -7.71zm-4.067 -2.893c-0.801,-0.448 -1.224,-0.904 -2.085,-1.274l0.085 -24.423c0.001,-1.728 3.192,-5.973 4.507,-7.786l9.994 -14.602c2.046,-2.911 2.099,-3.847 4.206,-4.932 0.814,-0.419 1.284,-0.798 2.052,-0.872 0.322,5.444 2.356,22.981 2.374,26.496 0.008,1.487 -2.905,4.554 -3.887,5.797 -2.935,3.71 -5.681,7.215 -8.599,10.836l-8.647 10.76zm33.506 44.282l-1.257 -26.538c-0.084,-1.781 0.254,-2.056 1.05,-3 7.817,-9.271 16.604,-21.262 24.54,-30.914 5.598,-6.81 12.133,-15.605 17.581,-22.065 -0.22,1.66 -1.185,4.177 -1.71,5.909l-4.581 14.871c-0.387,1.158 -0.858,1.912 -1.146,2.846l-1.713 6.008c-0.714,2.198 -1.092,3.974 -1.734,5.973 -1.519,4.721 -2.132,7.663 -4.669,11.075 -4.522,6.08 -8.752,11.784 -13.198,17.954l-13.163 17.881zm35.617 -48.824c1.084,-3.676 2.13,-6.82 3.219,-10.238l6.369 -20.546c1.01,-3.306 2.077,-6.885 3.171,-10.277 1.227,-3.803 2.725,-5.873 4.595,-8.843l4.144 -5.86c4.107,-6.68 7.859,-11.838 12.01,-18.257 1.401,0.508 23.699,20.007 24.839,21.118 -1.165,0.679 -8.211,2.8 -10.212,3.476 -2.103,0.711 -5.588,4.886 -7.304,6.707 -4.54,4.818 -8.974,9.412 -13.499,14.24 -0.693,0.74 -26.176,27.787 -27.332,28.48zm-39.675 13.903c-0.339,-0.488 -4.135,-42.947 -4.608,-49.323 -0.394,-5.333 -1.407,-11.219 -1.39,-16.635l10.909 -5.935c6.302,-2.969 21.209,-10.864 27.797,-14.519 1.813,-1.006 3.745,-2.097 5.65,-2.888l-9.464 22.244c-3.32,7.656 -6.386,14.948 -9.593,22.429l-16.841 39.186c-0.509,1.181 -1.786,4.601 -2.46,5.441zm7.293 -5.184c0.192,-1.297 9.505,-21.176 10.846,-24.012l11.144 -24.31c3.606,-8.049 7.424,-15.961 11.039,-24.133l6.907 -15.133c1.799,-3.596 1.092,-11.179 1.087,-15.763l0.309 -27.733c0.09,-11.457 0.827,-28.944 0.543,-40.598l0.019 -1.751c0.861,0.181 1.553,0.543 2.259,0.9 1.213,0.612 0.985,0.486 1.311,2.128 0.356,1.795 0.733,3.617 1.132,5.451 0.837,3.85 1.531,7.316 2.337,11.091 1.898,8.899 2.618,13.599 4.186,22.416l4.158 22.42c1.069,6.072 2.612,17.434 4.043,22.883 0.76,0.388 1.77,0.735 2.758,0.903 -1.208,1.681 -2.305,3.655 -3.526,5.423 -0.776,1.124 -1.251,1.449 -1.977,2.586 -3.439,5.381 -6.361,8.919 -9.876,13.869 -1.434,2.02 -2.246,3.869 -3.541,5.606 -0.662,0.887 -1.361,1.655 -2.057,2.517l-6.087 8.215c-1.364,1.838 -2.755,3.509 -4.151,5.269 -5.553,7.001 -10.802,13.994 -16.523,20.925 -2.831,3.431 -5.287,6.956 -8.134,10.465l-8.206 10.366zm94.476 -85.868l-0.733 21.704c-1.373,-0.653 -4.971,-4.081 -6.313,-5.252 -2.142,-1.869 -3.982,-3.397 -6.126,-5.305l-12.334 -10.576c0.986,-0.55 9.895,-0.312 12.149,-0.468 4.126,-0.284 9.138,-0.087 13.357,-0.103zm-188.037 68.214l9.651 -3.628c5.456,-1.965 13.525,-5.536 19.384,-7.798 12.809,-4.948 13.774,-7.419 22.669,-18.201 2.017,-2.444 4.011,-4.936 6.031,-7.409 1.816,-2.224 1.202,-1.742 4.199,-2.662 2.213,-0.679 2.734,-1.108 3.46,-3.402 -1.908,-0.073 -6.34,0.704 -7.65,1.493 -0.635,0.383 -6.97,9.92 -7.743,11.141 -1.177,1.858 -9.709,10.121 -11.71,11.437l-9.233 5.069c-7.285,3.636 -12.509,4.892 -20.314,7.696 -8.805,3.164 -5.829,2.187 -14.674,4.194 -8.608,1.953 -20.144,-15.334 -20.149,-16.726 0.678,-1.722 4.242,-5.548 5.555,-7.582 3.123,-4.837 2.061,-4.595 -0.136,-8.995 1.474,-0.441 2.518,-1.03 3.892,-1.559 6.024,-2.317 15.113,-5.31 21.281,-7.009 2.673,-0.736 7.371,0.332 10.198,0.687 8.967,1.125 10.745,3.714 17.21,-2.158 8.301,-7.538 18.798,-15.875 27.18,-23.421 1.113,-1.003 1.912,-1.537 3.058,-2.663 0.974,-0.956 1.931,-1.844 2.845,-2.878 3.509,-3.968 9.433,-9.47 13.931,-14.362 3.255,-3.54 7.586,-6.978 10.632,-11.688l9.657 6.917c3.451,2.477 6.835,4.487 10.041,6.828 1.73,1.263 3.087,2.316 4.794,3.495l15.164 10.223c-0.598,1.116 -2.751,1.96 -3.899,2.572l-51.331 27.609c-6.404,3.327 -4.852,2.611 -10.034,9.677 -1.842,2.512 -3.711,5.26 -5.439,7.711 -1.764,2.499 -3.575,5.124 -5.425,7.723 -5.775,8.109 -2.865,5.943 -15.773,10.527 -6.439,2.287 -12.824,4.574 -19.347,6.969 -3.272,1.202 -6.439,2.292 -9.703,3.442 -2.74,0.966 -2.322,1.277 -4.552,-0.423 -1.21,-0.922 -2.743,-1.917 -3.72,-2.846zm2.77 -64.561c0.386,-1.147 2.026,-3.546 2.748,-4.682 4.763,-7.504 13.361,-21.036 17.501,-28.249 0.993,-1.73 2.155,-3.143 2.923,-4.882 2.66,2.894 2.211,3 6.526,5.576l2.748 1.272c0.039,0.024 0.121,0.076 0.177,0.121 -2.106,1.675 -4.031,3.875 -5.975,5.744l-22.527 21.215c-2.015,1.675 -3.232,3.203 -4.121,3.885zm-4.262 -25.133c-2.195,-0.823 -5.798,-4.323 -6.567,-5.697 1.468,-0.134 3.024,-0.798 4.684,-1.002 1.483,-0.183 4.337,-0.377 5.756,-0.1 -1.151,2.121 -2.827,4.475 -3.873,6.799zm-28.047 53.458c11.146,-18.874 22.552,-39.211 33.919,-57.885 0.44,-0.724 0.779,-1.208 1.19,-1.936 0.845,-1.5 2.857,-5.278 3.79,-6.15 3.084,1.381 4.966,3.216 10.818,3.977 -2.11,3.481 -4.13,6.689 -6.353,10.132 -3.918,6.066 -8.724,14.473 -12.651,20.512 -0.759,1.168 -4.786,7.586 -5.325,9.004 -1.078,2.837 1.986,2.838 5.336,-0.682 1.431,-1.504 2.714,-2.699 4.223,-4.074l23.104 -22.368c1.414,-1.568 9.748,-9.524 10.803,-10.055l5.363 -2.93c1.361,-0.505 37.341,-1.459 40.093,-1.282 -0.893,1.408 -26.218,27.35 -28.214,29.172l-24.32 21.692c-6.673,5.963 -5.444,5.351 -16.364,3.234 -2.31,-0.448 -7.684,-1.771 -9.978,-1.26 -1.368,0.305 -3.181,0.859 -4.397,1.33l-13.218 4.215c-3.739,1.381 -7.505,3.267 -10.054,4.236 -1.029,0.392 -1.271,0.191 -2.605,0.239 -1.763,0.063 -3.453,0.603 -5.16,0.879zm18.544 -64.336c3.77,-0.015 13.304,-0.898 14.901,1.712 -1.28,1.126 -5.497,0.233 -10.107,1.04 -1.205,0.211 -2.058,0.588 -3.308,0.707 -0.563,-1.328 -1.182,-1.691 -1.486,-3.459zm4.849 -15.077l11.585 12.701c0.843,2.109 -3.589,0.644 -5.675,0.264 -2.677,-0.487 -7.667,-0.607 -10.695,-0.54 -0.196,-2.523 3.622,-10.697 4.785,-12.425zm35.81 12.512c0.931,-0.774 16.593,-7.011 18.871,-7.965 -0.97,5.769 -2.701,9.243 -6.897,11.665 -5.719,3.302 -9.486,0.502 -11.974,-3.7zm21.535 -10.785c2.227,0.549 4.902,1.763 7.194,2.632 2.516,0.953 4.84,1.84 7.447,2.848 2.593,1.002 4.986,1.912 7.464,2.837 1.242,0.463 2.365,1.002 3.708,1.437 1.38,0.446 2.902,0.624 4.057,1.128 -11.024,0.819 -22.577,1.242 -33.676,1.846 2.266,-3.115 5.045,-8.758 3.806,-12.728zm-22.854 7.855l6.185 -9.645c0.675,-1.115 1.311,-2.412 1.949,-3.426 2.008,-0.027 9.979,3.423 12.475,4.207 -0.288,0.33 -0.101,0.176 -0.544,0.482 -2.376,1.639 -19.684,8.366 -20.065,8.382zm103.029 30.309c-3.019,-1.761 -11.585,-7.955 -15.254,-10.616 -1.711,-1.242 -3.599,-2.237 -5.416,-3.468 -5.201,-3.526 -16.204,-11.438 -20.736,-14.082 -0.031,-3.525 0.813,-4.628 2.044,-8.348l10.821 -31.481c0.99,-2.733 1.681,-5.267 2.734,-7.847 1.041,-2.549 2.113,-4.885 3.012,-7.56 0.871,-2.591 1.628,-5.65 2.848,-7.832 1.617,0.441 16.746,8.084 20.07,9.18 1.645,21.315 0.194,40.158 0.228,61.251l-0.351 20.803zm-121.597 -30.118c0.523,-0.637 1.169,-1.5 1.821,-2.166l37.827 -40.235c1.274,-1.405 2.714,-2.844 4.05,-4.233l12.107 -12.777c1.245,-1.391 2.748,-2.866 4.062,-4.219 1.353,-1.393 2.618,-2.773 3.985,-4.206 0.114,1.509 -0.011,2.919 0.252,4.343 1.908,10.315 2.96,18.572 4.312,29.105 1.441,11.229 3.1,22.518 4.451,33.975l-21.268 -7.414c-6.914,-2.505 -14.299,-5.209 -21.33,-7.536 -1.467,-0.486 -4.156,-1.921 -5.578,-0.529l-10.721 17.865c-1.329,2.056 -0.993,2.964 -4.133,2.61 -2.671,-0.302 -5.903,-1.648 -8.011,-2.948 -0.999,-0.616 -1.094,-1.072 -1.826,-1.635zm136.821 -35.66c1.046,1.19 1.798,2.781 2.739,4.203l8.216 13.236c6.81,11.381 14.896,23.763 21.948,35.219 1.804,2.931 3.559,5.78 5.49,8.8l5.425 8.961 -32.501 -0.178c-2.22,-13.434 -5.266,-29.17 -7.85,-42.75 -0.584,-3.068 -0.832,-5.811 -1.454,-8.816 -1.287,-6.216 -1.28,-12.389 -2.013,-18.675zm-10.338 -18.21c0.537,-2.251 1.32,-4.476 1.96,-6.65l5.977 -19.446c0.019,-0.04 0.059,-0.126 0.098,-0.184 0.733,1.992 2.018,3.796 3.008,5.836 1.019,2.099 2.06,3.832 3.169,5.973 1.062,2.053 2.088,4.004 3.125,6.039 6.975,13.687 14.916,28.094 21.923,41.842l12.591 24.01c1.238,2.218 0.629,1.755 -2.041,5.496 -1.253,1.755 -2.271,3.952 -3.73,5.406l-38.696 -61.379c-5.307,-8.128 -2.908,-3.623 -7.219,-6.81 -0.035,-0.026 -0.111,-0.087 -0.165,-0.133zm-58.912 -15.157c1.405,-0.808 20.906,-18.104 24.359,-20.854l4.803 30.525c-0.188,1.563 -1.444,3.712 -1.975,5.157 -1.259,3.422 -2.185,7.161 -3.496,10.812l-14.694 42.059c-0.544,-5.429 -1.563,-11.414 -2.336,-16.825 -0.799,-5.595 -1.59,-11.195 -2.32,-16.841l-3.486 -25.129c-0.416,-3.118 -0.576,-5.683 -0.855,-8.904zm-71.418 67.106c-0.962,-0.674 -1.726,-1.768 -2.486,-2.581 -1.629,-1.743 -6.71,-6.915 -7.472,-8.198l17.554 -41.854 1.534 -0.474c0.623,-0.143 0.889,-0.201 1.635,-0.373 1.331,-0.307 2.218,-0.545 3.465,-0.833 2.243,-0.519 4.583,-1.051 6.736,-1.547l27.01 -6.147c4.552,-0.987 9.298,-2.294 13.777,-3.093 -0.899,1.302 -2.468,2.632 -3.706,4.001 -1.335,1.475 -2.32,2.645 -3.888,4.126l-7.721 8.299c-5.197,5.629 -10.113,10.7 -15.401,16.321l-26.936 28.537c-1.401,1.458 -2.698,2.536 -4.101,3.816zm-35.208 -69.659c1.592,0.049 23.649,6.318 26.685,7.082 1.989,0.5 1.792,1.231 2.672,3.036 0.654,1.341 1.262,2.617 1.84,3.882 1.156,2.529 2.365,5.118 3.6,7.559 1.361,2.689 0.737,2.266 -1.574,7.897l-5.086 12.059c-0.516,1.222 -0.941,2.967 -1.839,3.916 -2.582,-5.003 -9.79,-16.697 -13.15,-22.521l-11.525 -19.933c-0.586,-1.009 -1.038,-2.043 -1.623,-2.977zm49.44 1.068c2.088,-5.25 2.066,-4.48 8.55,-7.173 3.295,-1.369 18.797,-7.957 22.167,-9.062 1.257,1.454 16.41,13.54 17.423,15.175l-52.711 12.261 4.571 -11.201zm-11.734 17.452c-1.122,-1.739 -2.413,-4.649 -3.33,-6.563l-6.585 -13.425c-0.952,-1.947 -2.337,-4.41 -3.147,-6.513 2.886,0.213 20.666,2.314 22.561,2.889 -0.034,1.317 -8.593,22.269 -9.499,23.612zm139.023 -29.399c5.319,2.844 24.604,15.41 28.078,17.027 -0.436,7.37 -3.221,20.087 -4.315,27.978 -0.186,-0.2 -0.21,-0.221 -0.433,-0.553l-1.232 -2.217c-0.513,-0.964 -1.031,-1.893 -1.478,-2.807l-20.62 -39.428zm-155.223 68.139c-1.476,-2.911 -3.411,-5.876 -5.142,-8.965l-14.973 -26.21c-1.333,-2.293 -19.392,-33.387 -19.913,-35.131l38.957 4.454c1.293,3.198 4.784,9.485 5.598,11.974 -7.11,-2.246 -16.616,-4.428 -24.245,-6.573 -2.914,-0.819 -10.459,-3.963 -7.579,0.413l3.39 5.775c7.256,12.601 15.169,25.629 22.198,38.142 1.504,2.678 3.133,5.102 4.444,7.578 0.739,1.397 -0.309,2.869 -0.913,4.287 -0.653,1.533 -1.09,3.002 -1.822,4.256zm86.075 -131.082c1.838,3.121 18.975,41.218 21.652,46.977 1.117,2.402 2.011,3.539 0.418,5.178 -3.068,3.156 -15.845,14.229 -20.006,18.024 -1.068,0.974 -2.807,3.015 -4.484,3.089l1.5 -45.206 0.92 -28.062zm-21.538 39.436c1.904,-4.881 3.852,-9.757 5.89,-14.688l8.902 -21.979c0.519,-1.707 2.138,-6.043 2.956,-7.272 0.128,4.075 -0.998,73.257 -1.552,77.583 -0.951,0.073 -0.616,-0.032 -1.466,-0.782 -0.528,-0.466 -0.766,-0.658 -1.376,-1.211l-8.303 -7.122c-1.512,-1.191 -10.374,-8.67 -10.953,-9.6l5.902 -14.929zm75.533 49.734l-12.642 -5.58c-1.416,-0.651 -9.481,-3.739 -9.983,-4.899l-3.267 -18.17c-0.463,-2.656 -0.894,-5.141 -1.369,-7.772 -0.338,-1.875 -0.352,-3.354 -1.18,-4.536 -0.392,-0.559 0.013,0.151 -0.488,-0.656 -0.004,-0.007 -22.773,-49.85 -23.115,-51.549l14.683 16.226c2.99,3.929 6.451,6.994 9.634,10.68 6.983,8.089 16.809,19.264 23.992,26.89 0.984,1.045 1.356,1.758 2.566,2.58 1.987,1.349 7.994,4.339 9.064,6.102 1.034,1.705 1.068,1.574 0.422,3.625l-3.518 11.629c-0.633,2.048 -4.184,14.526 -4.799,15.43zm2.096 -38.045l-12.932 -14.215c-9.757,-10.892 -20.141,-22.006 -29.719,-32.895l-8.537 -9.487c-1.499,-1.733 -2.763,-3.021 -4.366,-4.767 -1.152,-1.256 -3.393,-3.602 -5.011,-0.163l-5.006 12.727c-1.466,4.292 -3.387,8.618 -5.083,12.914 -4.819,12.21 -10.743,26.549 -15.199,38.562 -0.643,1.734 -0.622,1.459 -2.402,2.177l-22.295 9.163c-3.094,1.205 -4.912,0.471 -7.961,0.143 -18.895,-2.033 -37.592,-4.041 -56.407,-6.493 -9.744,-1.27 -13.638,-2.578 -10.359,2.644 2.367,3.771 4.211,7.534 6.41,11.298 8.925,15.277 17.117,30.436 26.044,45.722l8.165 14.427c0.994,1.648 0.907,1.533 0.142,3.202 -0.769,1.679 -4.861,11.817 -4.763,13.149 0.371,5.018 7.852,12.394 11.94,14.589 -0.643,1.435 -1.935,3.388 -2.84,4.913l-27.943 46.964c-2.238,3.657 -1.788,1.929 -3.583,3.847 -3.908,4.174 -0.501,6.181 2.187,8.808 3.262,3.187 4.431,1.191 6.289,4.86 3.451,6.818 9.867,14.058 16.392,17.361 1.278,0.647 4.055,1.587 5.674,1.736 3.739,0.344 0.604,-0.841 5.102,1.775 4.907,2.854 6.431,5.251 9.539,4.08l44.497 -15.497 -0.017 23.153 30.935 21.968c1.717,1.215 1.151,1.548 1.429,3.941 0.414,3.558 1.993,23.142 2.925,23.387l0.411 0.113c0.075,0.012 0.153,0.023 0.236,0.033l2.84 -0.066 14.899 -20.373c0.809,-0.971 0.745,-0.359 1.571,-1.551 0.967,-1.398 1.6,-2.667 2.559,-4.031 0.965,-1.371 1.777,-2.191 2.826,-3.445 4.576,-5.469 4.643,-7.656 8.055,-11.398 0.883,-0.967 1.536,-2.625 2.474,-3.811 1.866,-2.359 4.133,-4.721 5.686,-7.191 1.191,-1.893 1.446,-2.178 2.975,-3.592 1.652,-1.528 1.333,-2.309 2.677,-3.617 5.309,-5.167 13.306,-13.969 18.806,-19.786l18.602 -19.998c1.124,-1.212 1.738,-2.322 3.587,-2.982 3.139,-1.12 12.171,-3.058 14.193,-4.691l0.94 -25.657c6.565,0.098 5.952,0.251 1.877,-6.584 -1.135,-1.903 -2.362,-3.667 -3.533,-5.601 -0.975,-1.609 -5.016,-7.377 -4.852,-8.975 0.106,-1.03 5.051,-7.377 5.709,-8.22 2.739,-3.51 2.325,-3.377 1.083,-5.896 -2.108,-4.273 -4.177,-7.947 -6.318,-12.271 -1.972,-3.982 -4.139,-8.113 -6.325,-12.262 -1.042,-1.978 -2.114,-4.025 -3.191,-6.24 -1.563,-3.216 -2.586,-3.983 -2.157,-6.215 1.066,-5.544 5.181,-27.495 5.341,-31.923l-44.218 -27.763z"/>
   <path class="fil1" d="M52.024 263.472c0.977,0.929 2.51,1.924 3.72,2.846 2.23,1.7 1.812,1.389 4.552,0.423 3.264,-1.15 6.431,-2.24 9.703,-3.442 6.523,-2.395 12.908,-4.682 19.347,-6.969 12.908,-4.584 9.998,-2.418 15.773,-10.527 1.85,-2.599 3.661,-5.224 5.425,-7.723 1.728,-2.451 3.597,-5.199 5.439,-7.711 5.182,-7.066 3.63,-6.35 10.034,-9.677l51.331 -27.609c1.148,-0.612 3.301,-1.456 3.899,-2.572l-15.164 -10.223c-1.707,-1.179 -3.064,-2.232 -4.794,-3.495 -3.206,-2.341 -6.59,-4.351 -10.041,-6.828l-9.657 -6.917c-3.046,4.71 -7.377,8.148 -10.632,11.688 -4.498,4.892 -10.422,10.394 -13.931,14.362 -0.914,1.034 -1.871,1.922 -2.845,2.878 -1.146,1.126 -1.945,1.66 -3.058,2.663 -8.382,7.546 -18.879,15.883 -27.18,23.421 -6.465,5.872 -8.243,3.283 -17.21,2.158 -2.827,-0.355 -7.525,-1.423 -10.198,-0.687 -6.168,1.699 -15.257,4.692 -21.281,7.009 -1.374,0.529 -2.418,1.118 -3.892,1.559 2.197,4.4 3.259,4.158 0.136,8.995 -1.313,2.034 -4.877,5.86 -5.555,7.582 0.005,1.392 11.541,18.679 20.149,16.726 8.845,-2.007 5.869,-1.03 14.674,-4.194 7.805,-2.804 13.029,-4.06 20.314,-7.696l9.233 -5.069c2.001,-1.316 10.533,-9.579 11.71,-11.437 0.773,-1.221 7.108,-10.758 7.743,-11.141 1.31,-0.789 5.742,-1.566 7.65,-1.493 -0.726,2.294 -1.247,2.723 -3.46,3.402 -2.997,0.92 -2.383,0.438 -4.199,2.662 -2.02,2.473 -4.014,4.965 -6.031,7.409 -8.895,10.782 -9.86,13.253 -22.669,18.201 -5.859,2.262 -13.928,5.833 -19.384,7.798l-9.651 3.628z"/>
   <path class="fil1" d="M22.485 227.236c1.707,-0.276 3.397,-0.816 5.16,-0.879 1.334,-0.048 1.576,0.153 2.605,-0.239 2.549,-0.969 6.315,-2.855 10.054,-4.236l13.218 -4.215c1.216,-0.471 3.029,-1.025 4.397,-1.33 2.294,-0.511 7.668,0.812 9.978,1.26 10.92,2.117 9.691,2.729 16.364,-3.234l24.32 -21.692c1.996,-1.822 27.321,-27.764 28.214,-29.172 -2.752,-0.177 -38.732,0.777 -40.093,1.282l-5.363 2.93c-1.055,0.531 -9.389,8.487 -10.803,10.055l-23.104 22.368c-1.509,1.375 -2.792,2.57 -4.223,4.074 -3.35,3.52 -6.414,3.519 -5.336,0.682 0.539,-1.418 4.566,-7.836 5.325,-9.004 3.927,-6.039 8.733,-14.446 12.651,-20.512 2.223,-3.443 4.243,-6.651 6.353,-10.132 -5.852,-0.761 -7.734,-2.596 -10.818,-3.977 -0.933,0.872 -2.945,4.65 -3.79,6.15 -0.411,0.728 -0.75,1.212 -1.19,1.936 -11.367,18.674 -22.773,39.011 -33.919,57.885z"/>
   <path class="fil1" d="M183.749 166.911c-0.034,-21.093 1.417,-39.936 -0.228,-61.251 -3.324,-1.096 -18.453,-8.739 -20.07,-9.18 -1.22,2.182 -1.977,5.241 -2.848,7.832 -0.899,2.675 -1.971,5.011 -3.012,7.56 -1.053,2.58 -1.744,5.114 -2.734,7.847l-10.821 31.481c-1.231,3.72 -2.075,4.823 -2.044,8.348 4.532,2.644 15.535,10.556 20.736,14.082 1.817,1.231 3.705,2.226 5.416,3.468 3.669,2.661 12.235,8.855 15.254,10.616l0.351 -20.803z"/>
   <path class="fil1" d="M153.791 270.76c2.847,-3.509 5.303,-7.034 8.134,-10.465 5.721,-6.931 10.97,-13.924 16.523,-20.925 1.396,-1.76 2.787,-3.431 4.151,-5.269l6.087 -8.215c0.696,-0.862 1.395,-1.63 2.057,-2.517 1.295,-1.737 2.107,-3.586 3.541,-5.606 3.515,-4.95 6.437,-8.488 9.876,-13.869 0.726,-1.137 1.201,-1.462 1.977,-2.586 1.221,-1.768 2.318,-3.742 3.526,-5.423 -0.988,-0.168 -1.998,-0.515 -2.758,-0.903 -1.431,-5.449 -2.974,-16.811 -4.043,-22.883l-4.158 -22.42c-1.568,-8.817 -2.288,-13.517 -4.186,-22.416 -0.806,-3.775 -1.5,-7.241 -2.337,-11.091 -0.399,-1.834 -0.776,-3.656 -1.132,-5.451 -0.326,-1.642 -0.098,-1.516 -1.311,-2.128 -0.706,-0.357 -1.398,-0.719 -2.259,-0.9l-0.019 1.751c0.284,11.654 -0.453,29.141 -0.543,40.598l-0.309 27.733c0.005,4.584 0.712,12.167 -1.087,15.763l-6.907 15.133c-3.615,8.172 -7.433,16.084 -11.039,24.133l-11.144 24.31c-1.341,2.836 -10.654,22.715 -10.846,24.012l8.206 -10.366z"/>
   <path class="fil1" d="M61.801 157.596c0.732,0.563 0.827,1.019 1.826,1.635 2.108,1.3 5.34,2.646 8.011,2.948 3.14,0.354 2.804,-0.554 4.133,-2.61l10.721 -17.865c1.422,-1.392 4.111,0.043 5.578,0.529 7.031,2.327 14.416,5.031 21.33,7.536l21.268 7.414c-1.351,-11.457 -3.01,-22.746 -4.451,-33.975 -1.352,-10.533 -2.404,-18.79 -4.312,-29.105 -0.263,-1.424 -0.138,-2.834 -0.252,-4.343 -1.367,1.433 -2.632,2.813 -3.985,4.206 -1.314,1.353 -2.817,2.828 -4.062,4.219l-12.107 12.777c-1.336,1.389 -2.776,2.828 -4.05,4.233l-37.827 40.235c-0.652,0.666 -1.298,1.529 -1.821,2.166z"/>
   <path class="fil1" d="M57.954 155.675c1.403,-1.28 2.7,-2.358 4.101,-3.816l26.936 -28.537c5.288,-5.621 10.204,-10.692 15.401,-16.321l7.721 -8.299c1.568,-1.481 2.553,-2.651 3.888,-4.126 1.238,-1.369 2.807,-2.699 3.706,-4.001 -4.479,0.799 -9.225,2.106 -13.777,3.093l-27.01 6.147c-2.153,0.496 -4.493,1.028 -6.736,1.547 -1.247,0.288 -2.134,0.526 -3.465,0.833 -0.746,0.172 -1.012,0.23 -1.635,0.373l-1.534 0.474 -17.554 41.854c0.762,1.283 5.843,6.455 7.472,8.198 0.76,0.813 1.524,1.907 2.486,2.581z"/>
   <path class="fil1" d="M184.322 101.364c0.615,-0.904 4.166,-13.382 4.799,-15.43l3.518 -11.629c0.646,-2.051 0.612,-1.92 -0.422,-3.625 -1.07,-1.763 -7.077,-4.753 -9.064,-6.102 -1.21,-0.822 -1.582,-1.535 -2.566,-2.58 -7.183,-7.626 -17.009,-18.801 -23.992,-26.89 -3.183,-3.686 -6.644,-6.751 -9.634,-10.68l-14.683 -16.226c0.342,1.699 23.111,51.542 23.115,51.549 0.501,0.807 0.096,0.097 0.488,0.656 0.828,1.182 0.842,2.661 1.18,4.536 0.475,2.631 0.906,5.116 1.369,7.772l3.267 18.17c0.502,1.16 8.567,4.248 9.983,4.899l12.642 5.58z"/>
   <path class="fil1" d="M138.292 286.31c0.674,-0.84 1.951,-4.26 2.46,-5.441l16.841 -39.186c3.207,-7.481 6.273,-14.773 9.593,-22.429l9.464 -22.244c-1.905,0.791 -3.837,1.882 -5.65,2.888 -6.588,3.655 -21.495,11.55 -27.797,14.519l-10.909 5.935c-0.017,5.416 0.996,11.302 1.39,16.635 0.473,6.376 4.269,48.835 4.608,49.323z"/>
   <path class="fil1" d="M129.372 88.569c0.279,3.221 0.439,5.786 0.855,8.904l3.486 25.129c0.73,5.646 1.521,11.246 2.32,16.841 0.773,5.411 1.792,11.396 2.336,16.825l14.694 -42.059c1.311,-3.651 2.237,-7.39 3.496,-10.812 0.531,-1.445 1.787,-3.594 1.975,-5.157l-4.803 -30.525c-3.453,2.75 -22.954,20.046 -24.359,20.854z"/>
   <path class="fil1" d="M177.967 272.407c1.156,-0.693 26.639,-27.74 27.332,-28.48 4.525,-4.828 8.959,-9.422 13.499,-14.24 1.716,-1.821 5.201,-5.996 7.304,-6.707 2.001,-0.676 9.047,-2.797 10.212,-3.476 -1.14,-1.111 -23.438,-20.61 -24.839,-21.118 -4.151,6.419 -7.903,11.577 -12.01,18.257l-4.144 5.86c-1.87,2.97 -3.368,5.04 -4.595,8.843 -1.094,3.392 -2.161,6.971 -3.171,10.277l-6.369 20.546c-1.089,3.418 -2.135,6.562 -3.219,10.238z"/>
   <path class="fil1" d="M188.284 103.726c0.054,0.046 0.13,0.107 0.165,0.133 4.311,3.187 1.912,-1.318 7.219,6.81l38.696 61.379c1.459,-1.454 2.477,-3.651 3.73,-5.406 2.67,-3.741 3.279,-3.278 2.041,-5.496l-12.591 -24.01c-7.007,-13.748 -14.948,-28.155 -21.923,-41.842 -1.037,-2.035 -2.063,-3.986 -3.125,-6.039 -1.109,-2.141 -2.15,-3.874 -3.169,-5.973 -0.99,-2.04 -2.275,-3.844 -3.008,-5.836 -0.039,0.058 -0.079,0.144 -0.098,0.184l-5.977 19.446c-0.64,2.174 -1.423,4.399 -1.96,6.65z"/>
   <path class="fil1" d="M201.361 126.139c-0.941,-1.422 -1.693,-3.013 -2.739,-4.203 0.733,6.286 0.726,12.459 2.013,18.675 0.622,3.005 0.87,5.748 1.454,8.816 2.584,13.58 5.63,29.316 7.85,42.75l32.501 0.178 -5.425 -8.961c-1.931,-3.02 -3.686,-5.869 -5.49,-8.8 -7.052,-11.456 -15.138,-23.838 -21.948,-35.219l-8.216 -13.236z"/>
   <path class="fil1" d="M155.513 303.35c4.446,-6.17 8.676,-11.874 13.198,-17.954 2.537,-3.412 3.15,-6.354 4.669,-11.075 0.642,-1.999 1.02,-3.775 1.734,-5.973l1.713 -6.008c0.288,-0.934 0.759,-1.688 1.146,-2.846l4.581 -14.871c0.525,-1.732 1.49,-4.249 1.71,-5.909 -5.448,6.46 -11.983,15.255 -17.581,22.065 -7.936,9.652 -16.723,21.643 -24.54,30.914 -0.796,0.944 -1.134,1.219 -1.05,3l1.257 26.538 13.163 -17.881z"/>
   <path class="fil1" d="M129.407 40.256l-1.5 45.206c1.677,-0.074 3.416,-2.115 4.484,-3.089 4.161,-3.795 16.938,-14.868 20.006,-18.024 1.593,-1.639 0.699,-2.776 -0.418,-5.178 -2.677,-5.759 -19.814,-43.856 -21.652,-46.977l-0.92 28.062z"/>
   <path class="fil1" d="M102.887 66.559c0.579,0.93 9.441,8.409 10.953,9.6l8.303 7.122c0.61,0.553 0.848,0.745 1.376,1.211 0.85,0.75 0.515,0.855 1.466,0.782 0.554,-4.326 1.68,-73.508 1.552,-77.583 -0.818,1.229 -2.437,5.565 -2.956,7.272l-8.902 21.979c-2.038,4.931 -3.986,9.807 -5.89,14.688l-5.902 14.929z"/>
   <path class="fil2" d="M44.252 143.276c0.732,-1.254 1.169,-2.723 1.822,-4.256 0.604,-1.418 1.652,-2.89 0.913,-4.287 -1.311,-2.476 -2.94,-4.9 -4.444,-7.578 -7.029,-12.513 -14.942,-25.541 -22.198,-38.142l-3.39 -5.775c-2.88,-4.376 4.665,-1.232 7.579,-0.413 7.629,2.145 17.135,4.327 24.245,6.573 -0.814,-2.489 -4.305,-8.776 -5.598,-11.974l-38.957 -4.454c0.521,1.744 18.58,32.838 19.913,35.131l14.973 26.21c1.731,3.089 3.666,6.054 5.142,8.965z"/>
   <path class="fil1" d="M22.746 86.016c0.585,0.934 1.037,1.968 1.623,2.977l11.525 19.933c3.36,5.824 10.568,17.518 13.15,22.521 0.898,-0.949 1.323,-2.694 1.839,-3.916l5.086 -12.059c2.311,-5.631 2.935,-5.208 1.574,-7.897 -1.235,-2.441 -2.444,-5.03 -3.6,-7.559 -0.578,-1.265 -1.186,-2.541 -1.84,-3.882 -0.88,-1.805 -0.683,-2.536 -2.672,-3.036 -3.036,-0.764 -25.093,-7.033 -26.685,-7.082z"/>
   <path class="fil1" d="M67.615 98.285l52.711 -12.261c-1.013,-1.635 -16.166,-13.721 -17.423,-15.175 -3.37,1.105 -18.872,7.693 -22.167,9.062 -6.484,2.693 -6.462,1.923 -8.55,7.173l-4.571 11.201z"/>
   <path class="fil1" d="M117.491 266.189c2.918,-3.621 5.664,-7.126 8.599,-10.836 0.982,-1.243 3.895,-4.31 3.887,-5.797 -0.018,-3.515 -2.052,-21.052 -2.374,-26.496 -0.768,0.074 -1.238,0.453 -2.052,0.872 -2.107,1.085 -2.16,2.021 -4.206,4.932l-9.994 14.602c-1.315,1.813 -4.506,6.058 -4.507,7.786l-0.085 24.423c0.861,0.37 1.284,0.826 2.085,1.274l8.647 -10.76z"/>
   <path class="fil1" d="M199.475 75.137l20.62 39.428c0.447,0.914 0.965,1.843 1.478,2.807l1.232 2.217c0.223,0.332 0.247,0.353 0.433,0.553 1.094,-7.891 3.879,-20.608 4.315,-27.978 -3.474,-1.617 -22.759,-14.183 -28.078,-17.027z"/>
   <path class="fil1" d="M123.432 287.552c1.751,1.303 3.538,2.461 5.362,3.792 1.317,0.961 3.891,3.122 5.174,3.724l-3.397 -38.693 -8.961 11.644c-0.97,1.394 -8.318,10.791 -8.699,11.823l10.521 7.71z"/>
   <path class="fil1" d="M60.452 104.536c0.906,-1.343 9.465,-22.295 9.499,-23.612 -1.895,-0.575 -19.675,-2.676 -22.561,-2.889 0.81,2.103 2.195,4.566 3.147,6.513l6.585 13.425c0.917,1.914 2.208,4.824 3.33,6.563z"/>
   <path class="fil1" d="M240.061 195.258c-4.219,0.016 -9.231,-0.181 -13.357,0.103 -2.254,0.156 -11.163,-0.082 -12.149,0.468l12.334 10.576c2.144,1.908 3.984,3.436 6.126,5.305 1.342,1.171 4.94,4.599 6.313,5.252l0.733 -21.704z"/>
   <path class="fil2" d="M54.794 198.911c0.889,-0.682 2.106,-2.21 4.121,-3.885l22.527 -21.215c1.944,-1.869 3.869,-4.069 5.975,-5.744 -0.056,-0.045 -0.138,-0.097 -0.177,-0.121l-2.748 -1.272c-4.315,-2.576 -3.866,-2.682 -6.526,-5.576 -0.768,1.739 -1.93,3.152 -2.923,4.882 -4.14,7.213 -12.738,20.745 -17.501,28.249 -0.722,1.136 -2.362,3.535 -2.748,4.682z"/>
   <path class="fil1" d="M103.223 149.55c1.239,3.97 -1.54,9.613 -3.806,12.728 11.099,-0.604 22.652,-1.027 33.676,-1.846 -1.155,-0.504 -2.677,-0.682 -4.057,-1.128 -1.343,-0.435 -2.466,-0.974 -3.708,-1.437 -2.478,-0.925 -4.871,-1.835 -7.464,-2.837 -2.607,-1.008 -4.931,-1.895 -7.447,-2.848 -2.292,-0.869 -4.967,-2.083 -7.194,-2.632z"/>
   <path class="fil2" d="M81.688 160.335c2.488,4.202 6.255,7.002 11.974,3.7 4.196,-2.422 5.927,-5.896 6.897,-11.665 -2.278,0.954 -17.94,7.191 -18.871,7.965z"/>
   <path class="fil2" d="M45.878 147.823c-1.163,1.728 -4.981,9.902 -4.785,12.425 3.028,-0.067 8.018,0.053 10.695,0.54 2.086,0.38 6.518,1.845 5.675,-0.264l-11.585 -12.701z"/>
   <path class="fil2" d="M80.369 157.405c0.381,-0.016 17.689,-6.743 20.065,-8.382 0.443,-0.306 0.256,-0.152 0.544,-0.482 -2.496,-0.784 -10.467,-4.234 -12.475,-4.207 -0.638,1.014 -1.274,2.311 -1.949,3.426l-6.185 9.645z"/>
   <path class="fil3" d="M50.532 173.778c1.046,-2.324 2.722,-4.678 3.873,-6.799 -1.419,-0.277 -4.273,-0.083 -5.756,0.1 -1.66,0.204 -3.216,0.868 -4.684,1.002 0.769,1.374 4.372,4.874 6.567,5.697z"/>
   <path class="fil3" d="M42.515 166.359c1.25,-0.119 2.103,-0.496 3.308,-0.707 4.61,-0.807 8.827,0.086 10.107,-1.04 -1.597,-2.61 -11.131,-1.727 -14.901,-1.712 0.304,1.768 0.923,2.131 1.486,3.459z"/>
  </g>
 </g>
</svg>
