<svg width="150" height="150" viewBox="0 0 150 150" fill="none" xmlns="http://www.w3.org/2000/svg">
<g clip-path="url(#clip0_1_2)">
<path fill-rule="evenodd" clip-rule="evenodd" d="M64.0079 127.479C64.1798 127.013 67.496 122.766 67.9338 122.136L71.978 116.873L73.511 134.361C72.932 134.089 71.7704 133.112 71.176 132.678C70.3528 132.076 69.5463 131.553 68.7561 130.964L64.0079 127.479ZM62.1724 126.172C61.8109 125.969 61.62 125.763 61.2314 125.596L61.2698 114.557C61.2702 113.776 62.7104 111.858 63.3038 111.038L67.8142 104.439C68.7376 103.123 68.7615 102.7 69.7124 102.21C70.0798 102.02 70.2919 101.849 70.6385 101.816C70.7838 104.276 71.7018 112.202 71.7099 113.791C71.7135 114.463 70.3988 115.849 69.9556 116.411C68.6311 118.088 67.3918 119.672 66.0749 121.308L62.1724 126.172ZM77.2939 146.186L76.7266 134.191C76.6887 133.386 76.8412 133.262 77.2005 132.835C80.7284 128.645 84.694 123.226 88.2756 118.863C90.802 115.785 93.7513 111.81 96.21 108.891C96.1107 109.641 95.6752 110.779 95.4383 111.561L93.3708 118.283C93.1962 118.806 92.9836 119.147 92.8536 119.569L92.0805 122.284C91.7583 123.278 91.5877 124.08 91.298 124.984C90.6124 127.118 90.3358 128.447 89.1908 129.989C87.15 132.737 85.241 135.315 83.2345 138.104L77.2939 146.186ZM93.3681 124.119C93.8573 122.457 94.3294 121.036 94.8209 119.492L97.6953 110.205C98.1511 108.711 98.6326 107.094 99.1264 105.561C99.6801 103.842 100.356 102.906 101.2 101.564L103.07 98.9154C104.924 95.8962 106.617 93.565 108.491 90.6638C109.123 90.8934 119.186 99.7063 119.701 100.208C119.175 100.515 115.995 101.474 115.092 101.779C114.143 102.101 112.57 103.988 111.795 104.811C109.747 106.988 107.745 109.065 105.703 111.247C105.391 111.581 93.8898 123.806 93.3681 124.119ZM75.4625 130.402C75.3095 130.182 73.5963 110.992 73.3829 108.11C73.2051 105.7 72.7479 103.04 72.7556 100.592L77.6789 97.9093C80.523 96.5674 87.2507 92.9991 90.2239 91.3472C91.0421 90.8925 91.914 90.3994 92.7737 90.0419L88.5026 100.095C87.0042 103.556 85.6205 106.851 84.1732 110.233L76.5727 127.943C76.343 128.477 75.7667 130.023 75.4625 130.402ZM78.7539 128.059C78.8405 127.473 83.0436 118.489 83.6488 117.207L88.6781 106.22C90.3055 102.582 92.0286 99.0057 93.6601 95.3123L96.7773 88.4727C97.5892 86.8474 97.2701 83.4201 97.2679 81.3483L97.4073 68.8139C97.4479 63.6358 97.7806 55.7322 97.6524 50.465L97.661 49.6736C98.0495 49.7554 98.3618 49.919 98.6805 50.0804C99.2279 50.357 99.125 50.3 99.2721 51.0422C99.4328 51.8534 99.6029 52.6769 99.783 53.5058C100.161 55.2459 100.474 56.8124 100.838 58.5186C101.694 62.5406 102.019 64.6649 102.727 68.6499L104.603 78.783C105.086 81.5273 105.782 86.6625 106.428 89.1253C106.771 89.3007 107.227 89.4575 107.673 89.5334C107.128 90.2932 106.632 91.1854 106.081 91.9844C105.731 92.4925 105.517 92.6393 105.189 93.1532C103.637 95.5853 102.318 97.1843 100.732 99.4216C100.085 100.335 99.7185 101.17 99.134 101.955C98.8353 102.356 98.5198 102.703 98.2057 103.093L95.4586 106.806C94.843 107.636 94.2152 108.392 93.5852 109.187C91.0791 112.351 88.7102 115.512 86.1283 118.645C84.8506 120.195 83.7422 121.788 82.4573 123.374L78.7539 128.059ZM121.392 89.25L121.061 99.0595C120.441 98.7644 118.817 97.2151 118.212 96.6858C117.245 95.8411 116.415 95.1505 115.447 94.2881L109.881 89.5081C110.326 89.2595 114.346 89.3671 115.363 89.2966C117.226 89.1682 119.488 89.2573 121.392 89.25ZM36.5291 120.08L40.8847 118.441C43.347 117.553 46.9886 115.939 49.6328 114.916C55.4136 112.68 55.8491 111.563 59.8635 106.69C60.7738 105.585 61.6737 104.459 62.5853 103.341C63.4049 102.336 63.1278 102.554 64.4804 102.138C65.4791 101.831 65.7143 101.638 66.0419 100.601C65.1808 100.568 63.1806 100.919 62.5894 101.276C62.3028 101.449 59.4438 105.759 59.0949 106.311C58.5637 107.151 54.7132 110.885 53.8101 111.48L49.6432 113.771C46.3554 115.414 43.9978 115.982 40.4753 117.249C36.5016 118.679 37.8447 118.238 33.8529 119.145C29.968 120.028 24.7617 112.214 24.7595 111.585C25.0654 110.807 26.6739 109.078 27.2665 108.159C28.6759 105.972 28.1966 106.082 27.2051 104.093C27.8703 103.894 28.3415 103.628 28.9616 103.388C31.6803 102.341 35.7822 100.989 38.5659 100.221C39.7722 99.888 41.8924 100.371 43.1683 100.531C47.2152 101.04 48.0176 102.21 50.9353 99.5558C54.6816 96.1489 59.419 92.3808 63.2018 88.9703C63.7041 88.517 64.0647 88.2756 64.5819 87.7667C65.0215 87.3346 65.4534 86.9333 65.8659 86.4659C67.4495 84.6725 70.1231 82.1858 72.1531 79.9748C73.6221 78.3748 75.5767 76.821 76.9514 74.6922L81.3096 77.8185C82.8671 78.938 84.3943 79.8464 85.8412 80.9045C86.622 81.4753 87.2344 81.9512 88.0048 82.4841L94.8484 87.1046C94.5785 87.609 93.6069 87.9904 93.0888 88.267L69.9227 100.745C67.0325 102.249 67.733 101.925 65.3943 105.119C64.563 106.254 63.7195 107.496 62.9396 108.604C62.1435 109.734 61.3262 110.92 60.4913 112.095C57.885 115.76 59.1983 114.781 53.3728 116.853C50.4668 117.886 47.5852 118.92 44.6414 120.002C43.1647 120.546 41.7354 121.038 40.2623 121.558C39.0257 121.995 39.2144 122.135 38.208 121.367C37.6619 120.95 36.97 120.5 36.5291 120.08ZM37.7792 90.9011C37.9534 90.3827 38.6936 89.2984 39.0194 88.785C41.169 85.3934 45.0493 79.2774 46.9178 76.0174C47.3659 75.2355 47.8903 74.5968 48.2369 73.8109C49.4374 75.1189 49.2348 75.1668 51.1822 76.331L52.4224 76.9059C52.44 76.9168 52.477 76.9403 52.5022 76.9606C51.5518 77.7177 50.683 78.712 49.8057 79.5567L39.6391 89.1452C38.7297 89.9022 38.1804 90.5928 37.7792 90.9011ZM35.8558 79.5418C34.8651 79.1698 33.2391 77.588 32.892 76.967C33.5545 76.9064 34.2568 76.6063 35.0059 76.5141C35.6752 76.4314 36.9633 76.3437 37.6037 76.4689C37.0842 77.4275 36.3278 78.4914 35.8558 79.5418ZM23.1979 103.703C28.2282 95.1726 33.3758 85.981 38.5058 77.541C38.7044 77.2137 38.8574 76.995 39.0429 76.6659C39.4242 75.988 40.3323 74.2805 40.7533 73.8864C42.1452 74.5105 42.9945 75.3399 45.6356 75.6838C44.6833 77.2571 43.7717 78.707 42.7684 80.2631C41.0002 83.0048 38.8312 86.8045 37.0589 89.5339C36.7164 90.0618 34.899 92.9625 34.6557 93.6034C34.1692 94.8856 35.552 94.8861 37.0639 93.2951C37.7097 92.6154 38.2888 92.0753 38.9698 91.4538L49.3968 81.3443C50.0349 80.6356 53.7961 77.0397 54.2723 76.7997L56.6926 75.4755C57.3069 75.2472 73.5449 74.816 74.7869 74.896C74.3839 75.5324 62.9545 87.2573 62.0537 88.0808L51.0779 97.8849C48.0663 100.58 48.621 100.303 43.6927 99.3465C42.6502 99.144 40.2249 98.5461 39.1896 98.777C38.5722 98.9149 37.754 99.1653 37.2052 99.3782L31.2398 101.283C29.5523 101.907 27.8527 102.76 26.7023 103.198C26.2379 103.375 26.1287 103.284 25.5267 103.306C24.731 103.334 23.9683 103.578 23.1979 103.703ZM31.567 74.6253C33.2684 74.6185 37.5712 74.2195 38.2919 75.3991C37.7142 75.908 35.8111 75.5044 33.7306 75.8691C33.1867 75.9645 32.8018 76.1349 32.2376 76.1887C31.9835 75.5885 31.7042 75.4244 31.567 74.6253ZM33.7554 67.811L38.9838 73.5514C39.3642 74.5046 37.364 73.8425 36.4226 73.6708C35.2145 73.4507 32.9624 73.3964 31.5959 73.4267C31.5074 72.2864 33.2305 68.592 33.7554 67.811ZM49.9167 73.466C50.3369 73.1162 57.4052 70.2973 58.4333 69.8661C57.9955 72.4735 57.2143 74.0436 55.3207 75.1383C52.7396 76.6307 51.0395 75.3652 49.9167 73.466ZM59.6356 68.5916C60.6407 68.8397 61.8479 69.3884 62.8823 69.7811C64.0178 70.2119 65.0666 70.6128 66.2432 71.0683C67.4134 71.5212 68.4934 71.9325 69.6118 72.3506C70.1723 72.5598 70.6791 72.8034 71.2852 73C71.908 73.2016 72.5949 73.2821 73.1162 73.5099C68.1409 73.88 62.927 74.0712 57.9179 74.3442C58.9406 72.9363 60.1948 70.3859 59.6356 68.5916ZM49.3214 72.1418L52.1128 67.7825C52.4174 67.2786 52.7044 66.6924 52.9924 66.2341C53.8986 66.2219 57.496 67.7812 58.6224 68.1355C58.4924 68.2847 58.5768 68.2151 58.3769 68.3534C57.3046 69.0942 49.4934 72.1345 49.3214 72.1418ZM95.8192 85.8404C94.4567 85.0445 90.5908 82.245 88.9349 81.0423C88.1627 80.481 87.3107 80.0313 86.4906 79.4749C84.1434 77.8813 79.1777 74.3053 77.1323 73.1103C77.1183 71.5171 77.4992 71.0186 78.0548 69.3373L82.9384 55.109C83.3852 53.8737 83.6971 52.7285 84.1723 51.5624C84.6421 50.4103 85.1259 49.3545 85.5316 48.1455C85.9247 46.9745 86.2664 45.5919 86.8169 44.6057C87.5467 44.805 94.3745 48.2594 95.8747 48.7548C96.6171 58.3884 95.9622 66.9048 95.9776 76.4382L95.8192 85.8404ZM40.9415 72.2281C41.1776 71.9402 41.4691 71.5501 41.7634 71.2491L58.835 53.0643C59.4099 52.4293 60.0598 51.7789 60.6628 51.1511L66.1268 45.3763C66.6886 44.7476 67.3669 44.081 67.96 43.4695C68.5706 42.8399 69.1415 42.2162 69.7584 41.5685C69.8099 42.2505 69.7535 42.8878 69.8722 43.5314C70.7333 48.1934 71.208 51.9253 71.8182 56.6859C72.4685 61.761 73.2172 66.8633 73.827 72.0414L64.2286 68.6905C61.1082 67.5584 57.7753 66.3363 54.6022 65.2845C53.9401 65.0649 52.7265 64.4163 52.0848 65.0454L47.2463 73.1198C46.6465 74.0491 46.7982 74.4594 45.3811 74.2995C44.1756 74.163 42.717 73.5546 41.7656 72.9671C41.3148 72.6886 41.2719 72.4825 40.9415 72.2281ZM102.69 56.111C103.162 56.6488 103.501 57.3679 103.926 58.0106L107.634 63.9928C110.707 69.1366 114.357 74.7329 117.539 79.9106C118.353 81.2353 119.145 82.523 120.017 83.8879L122.465 87.938L107.797 87.8575C106.795 81.7858 105.421 74.6737 104.255 68.536C103.991 67.1493 103.879 65.9096 103.598 64.5514C103.018 61.742 103.021 58.952 102.69 56.111ZM98.0243 47.8807C98.2666 46.8633 98.62 45.8577 98.9088 44.8751L101.606 36.0861C101.615 36.0681 101.633 36.0292 101.651 36.003C101.981 36.9033 102.561 37.7187 103.008 38.6407C103.468 39.5893 103.938 40.3726 104.438 41.3403C104.918 42.2681 105.381 43.1499 105.849 44.0697C108.996 50.2557 112.58 56.7672 115.743 62.9809L121.425 73.8326C121.984 74.835 121.709 74.6258 120.504 76.3166C119.938 77.1098 119.479 78.1028 118.821 78.7599L101.357 51.0187C98.9616 47.3451 100.044 49.3812 98.0987 47.9408C98.0829 47.929 98.0486 47.9015 98.0243 47.8807ZM71.4368 41.0302C72.0709 40.665 80.8719 32.8478 82.4302 31.6049L84.5979 45.4012C84.513 46.1076 83.9462 47.0789 83.7065 47.732C83.1383 49.2786 82.7204 50.9685 82.1288 52.6186L75.4973 71.6279C75.2517 69.1742 74.7919 66.4691 74.443 64.0235C74.0824 61.4948 73.7254 58.9638 73.396 56.412L71.8227 45.0545C71.635 43.6453 71.5627 42.486 71.4368 41.0302ZM39.2054 71.3599C38.7712 71.0552 38.4264 70.5608 38.0834 70.1933C37.3482 69.4056 35.0551 67.068 34.7112 66.4881L42.6335 47.5715L43.3258 47.3573C43.607 47.2927 43.727 47.2664 44.0637 47.1887C44.6644 47.0499 45.0647 46.9424 45.6275 46.8122C46.6398 46.5776 47.6958 46.3372 48.6675 46.113L60.8573 43.3348C62.9116 42.8887 65.0535 42.298 67.075 41.9369C66.6692 42.5253 65.9611 43.1264 65.4024 43.7452C64.7999 44.4118 64.3554 44.9406 63.6477 45.61L60.1632 49.3609C57.8177 51.905 55.5991 54.1969 53.2126 56.7374L41.0562 69.6352C40.4239 70.2941 39.8385 70.7813 39.2054 71.3599ZM23.3157 39.8763C24.0342 39.8985 33.9887 42.7319 35.3589 43.0772C36.2565 43.3031 36.1676 43.6335 36.5648 44.4493C36.8599 45.0554 37.1343 45.6321 37.3952 46.2039C37.9169 47.3469 38.4625 48.517 39.0199 49.6203C39.6341 50.8356 39.3525 50.6444 38.3095 53.1895L36.0142 58.6397C35.7813 59.192 35.5895 59.9807 35.1842 60.4096C34.0189 58.1484 30.7659 52.8631 29.2495 50.2309L24.0482 41.2218C23.7837 40.7658 23.5797 40.2985 23.3157 39.8763ZM45.6284 40.359C46.5707 37.9862 46.5608 38.3342 49.4871 37.1171C50.9741 36.4983 57.9703 33.5208 59.4912 33.0214C60.0585 33.6785 66.8971 39.141 67.3543 39.88L43.5654 45.4215L45.6284 40.359ZM40.3327 48.2468C39.8264 47.4608 39.2437 46.1456 38.8299 45.2805L35.858 39.2129C35.4284 38.3329 34.8033 37.2197 34.4378 36.2692C35.7402 36.3655 43.7645 37.315 44.6197 37.5749C44.6044 38.1702 40.7416 47.6398 40.3327 48.2468ZM103.075 34.9594C105.475 36.2448 114.179 41.9242 115.747 42.655C115.55 45.986 114.293 51.7337 113.799 55.3001C113.715 55.2097 113.704 55.2003 113.604 55.0502L113.048 54.0482C112.816 53.6125 112.583 53.1926 112.381 52.7795L103.075 34.9594ZM33.0215 65.7559C32.3554 64.4403 31.4821 63.1002 30.7009 61.7041L23.9435 49.858C23.3419 48.8217 15.1917 34.7682 14.9566 33.98L32.5382 35.993C33.1217 37.4384 34.6973 40.2799 35.0646 41.4049C31.8558 40.3898 27.5657 39.4036 24.1227 38.4341C22.8076 38.064 19.4024 36.643 20.7022 38.6208L22.2321 41.2309C25.5068 46.9261 29.078 52.8143 32.2503 58.4698C32.929 59.6801 33.6642 60.7757 34.2559 61.8948C34.5894 62.5262 34.1164 63.1915 33.8438 63.8324C33.5491 64.5252 33.3519 65.1892 33.0215 65.7559ZM71.8678 6.51128C72.6973 7.92187 80.4314 25.1404 81.6395 27.7433C82.1437 28.8289 82.5471 29.3428 81.8282 30.0836C80.4436 31.51 74.6772 36.5146 72.7993 38.2298C72.3173 38.67 71.5325 39.5925 70.7757 39.6259L71.4526 19.1944L71.8678 6.51128ZM62.1476 24.335C63.0069 22.129 63.886 19.9252 64.8058 17.6965L68.8233 7.76277C69.0575 6.99127 69.7882 5.03154 70.1574 4.47607C70.2152 6.31784 69.707 37.5858 69.457 39.541C69.0278 39.574 69.1789 39.5265 68.7953 39.1875C68.557 38.9769 68.4496 38.8901 68.1743 38.6402L64.4271 35.4213C63.7448 34.883 59.7453 31.5028 59.484 31.0824L62.1476 24.335ZM96.2362 46.8131L90.5308 44.2911C89.8917 43.9969 86.2519 42.6012 86.0254 42.077L84.5509 33.8647C84.342 32.6643 84.1475 31.5412 83.9331 30.3521C83.7805 29.5046 83.7742 28.8362 83.4005 28.3019C83.2236 28.0493 83.4064 28.3702 83.1803 28.0054C83.1785 28.0023 72.9027 5.47492 72.7483 4.70703L79.3749 12.0406C80.7243 13.8164 82.2863 15.2017 83.7228 16.8676C86.8743 20.5236 91.3088 25.5743 94.5506 29.021C94.9946 29.4933 95.1625 29.8156 95.7086 30.1871C96.6054 30.7968 99.3164 32.1482 99.7993 32.945C100.266 33.7156 100.281 33.6564 99.9897 34.5834L98.402 39.8393C98.1163 40.7649 96.5137 46.4045 96.2362 46.8131ZM97.1821 29.6181L91.3458 23.1934C86.9424 18.2705 82.256 13.2474 77.9334 8.32592L74.0806 4.03812C73.4041 3.25486 72.8336 2.67273 72.1102 1.8836C71.5903 1.31593 70.5789 0.255613 69.8487 1.80993L67.5894 7.5621C66.9278 9.50194 66.0609 11.4571 65.2954 13.3988C63.1206 18.9173 60.4471 25.3981 58.436 30.8275C58.1458 31.6112 58.1553 31.4869 57.352 31.8115L47.2901 35.9528C45.8937 36.4974 45.0733 36.1657 43.6972 36.0174C35.1698 35.0986 26.7317 34.1911 18.2403 33.0828C13.8428 32.5088 12.0854 31.9177 13.5652 34.2778C14.6335 35.9822 15.4657 37.6829 16.4581 39.3841C20.486 46.2888 24.1831 53.1402 28.212 60.049L31.8969 66.5695C32.3455 67.3143 32.3062 67.2623 31.961 68.0167C31.6139 68.7755 29.7672 73.3576 29.8114 73.9596C29.9788 76.2275 33.3551 79.5612 35.2 80.5533C34.9098 81.2019 34.3267 82.0846 33.9183 82.7738L21.3074 104C20.2974 105.653 20.5005 104.872 19.6904 105.739C17.9267 107.625 19.4643 108.532 20.6774 109.72C22.1496 111.16 22.6771 110.258 23.5157 111.916C25.0731 114.998 27.9687 118.27 30.9135 119.763C31.4903 120.055 32.7435 120.48 33.4742 120.547C35.1616 120.703 33.7468 120.167 35.7768 121.35C37.9913 122.64 38.6791 123.723 40.0818 123.194L60.1636 116.19L60.156 126.654L74.1172 136.583C74.892 137.132 74.6366 137.282 74.7621 138.364C74.9489 139.972 75.6615 148.823 76.0821 148.934L76.2676 148.985C76.3015 148.991 76.3367 148.995 76.3741 149L77.6559 148.97L84.3799 139.762C84.745 139.323 84.7161 139.6 85.0889 139.061C85.5253 138.429 85.811 137.856 86.2438 137.239C86.6793 136.62 87.0458 136.249 87.5192 135.682C89.5844 133.211 89.6146 132.222 91.1545 130.531C91.553 130.094 91.8477 129.344 92.271 128.808C93.1131 127.742 94.1362 126.675 94.8371 125.558C95.3746 124.703 95.4897 124.574 96.1798 123.935C96.9253 123.244 96.7814 122.891 97.3879 122.3C99.7839 119.965 103.393 115.987 105.875 113.357L114.27 104.319C114.778 103.771 115.055 103.27 115.889 102.971C117.306 102.465 121.382 101.589 122.295 100.851L122.719 89.255C125.682 89.2993 125.405 89.3685 123.566 86.2793C123.054 85.4192 122.5 84.6219 121.972 83.7478C121.532 83.0206 119.708 80.4137 119.782 79.6914C119.83 79.2259 122.061 76.3573 122.358 75.9763C123.594 74.3898 123.408 74.45 122.847 73.3115C121.896 71.3802 120.962 69.7197 119.996 67.7654C119.106 65.9656 118.128 64.0986 117.141 62.2234C116.671 61.3294 116.187 60.4042 115.701 59.4031C114.996 57.9496 114.534 57.6029 114.728 56.5941C115.209 54.0884 117.066 44.1673 117.138 42.166L97.1821 29.6181Z" fill="#020202"/>
</g>
<defs>
<clipPath id="clip0_1_2">
<rect width="112" height="148" fill="white" transform="translate(13 1)"/>
</clipPath>
</defs>
</svg>
