<svg id='tiktok' width="54" height="60" viewBox="0 0 54 60"  xmlns="http://www.w3.org/2000/svg">
<path d="M42.3333 9.4C40.0547 6.79874 38.799 3.45811 38.8 0H28.5V41.3333C28.4206 43.5701 27.4762 45.6887 25.8659 47.2431C24.2555 48.7975 22.1048 49.6663 19.8667 49.6667C15.1333 49.6667 11.2 45.8 11.2 41C11.2 35.2667 16.7333 30.9667 22.4333 32.7333V22.2C10.9333 20.6667 0.866669 29.6 0.866669 41C0.866669 52.1 10.0667 60 19.8333 60C30.3 60 38.8 51.5 38.8 41V20.0333C42.9767 23.0328 47.9912 24.6422 53.1333 24.6333V14.3333C53.1333 14.3333 46.8667 14.6333 42.3333 9.4Z"/>
</svg>
