<svg width="50" height="26" viewBox="0 0 50 26" fill="none" xmlns="http://www.w3.org/2000/svg">
<path d="M0.833313 23.3578H9.62998V25.9243H0.833313V23.3578ZM0.833313 20.0204H9.62998V22.5869H0.833313V20.0204ZM0.833313 16.6854H9.62998V19.2519H0.833313V16.6854ZM0.833313 13.3504H9.62998V15.9169H0.833313V13.3504ZM0.833313 10.013H9.62998V12.5795H0.833313V10.013ZM10.6981 23.3578H19.4972V25.9243H10.6981V23.3578ZM10.6981 20.0204H19.4972V22.5869H10.6981V20.0204ZM10.6981 16.6854H19.4972V19.2519H10.6981V16.6854ZM20.563 23.3578H29.3621V25.9243H20.563V23.3578ZM20.563 20.0204H29.3621V22.5869H20.563V20.0204ZM20.563 16.6854H29.3621V19.2519H20.563V16.6854ZM20.563 13.3504H29.3621V15.9169H20.563V13.3504ZM20.563 10.013H29.3621V12.5795H20.563V10.013ZM20.563 6.67801H29.3621V9.24451H20.563V6.67801ZM20.563 3.34059H29.3621V5.90709H20.563V3.34059ZM30.4278 23.3578H39.2269V25.9243H30.4278V23.3578ZM30.4278 20.0204H39.2269V22.5869H30.4278V20.0204ZM30.4278 16.6854H39.2269V19.2519H30.4278V16.6854ZM30.4278 13.3504H39.2269V15.9169H30.4278V13.3504ZM30.4278 10.013H39.2269V12.5795H30.4278V10.013ZM40.2926 23.3578H49.0917V25.9243H40.2926V23.3578ZM40.2926 20.0204H49.0917V22.5869H40.2926V20.0204ZM40.2926 16.6854H49.0917V19.2519H40.2926V16.6854ZM40.2926 13.3504H49.0917V15.9169H40.2926V13.3504ZM40.2926 10.013H49.0917V12.5795H40.2926V10.013ZM40.2926 6.67801H49.0917V9.24451H40.2926V6.67801ZM40.2926 3.34059H49.0917V5.90709H40.2926V3.34059ZM40.2926 0.00317383H49.0917V2.56967H40.2926V0.00317383Z" fill="white"/>
</svg>
